<svg width="121" height="36" viewBox="0 0 121 36" fill="none" xmlns="http://www.w3.org/2000/svg">
<g style="mix-blend-mode:overlay">
<path fill-rule="evenodd" clip-rule="evenodd" d="M75.743 8.03161V0.0165574C74.4859 0.0165574 73.2525 0.0123317 72.0319 0.00814987C70.5947 0.00322601 69.1753 -0.00163706 67.7559 0.000529984C63.4237 0.0446128 60.4021 2.97812 60.362 7.32629C60.2979 14.1364 60.2979 20.9492 60.362 27.7647C60.4021 31.9606 63.4959 34.9221 67.6958 34.9502H74.9936C75.1632 34.9502 75.3329 34.9284 75.4917 34.9081L75.4917 34.9081L75.4918 34.9081L75.492 34.9081L75.4923 34.908C75.5696 34.8981 75.6441 34.8886 75.7149 34.882V26.867H69.8358V8.03161H75.743ZM0 34.9462V0.0807658C0.171827 0.0807658 0.34465 0.0688131 0.517972 0.0568259C0.6923 0.0447692 0.867133 0.0326775 1.04197 0.0326775H12.8442C17.5891 0.0326775 20.5307 3.01027 20.5347 7.77121V16.155C20.5347 21.1964 17.7494 24.0217 12.6759 24.1179C11.9978 24.1311 11.3214 24.1269 10.6102 24.1225C10.2411 24.1202 9.86274 24.1179 9.46984 24.1179V34.9382L0 34.9462ZM11.0408 17.5816V6.52487H9.50992V17.5736L11.0408 17.5816ZM38.2357 0.0567479H47.6615C47.7803 0.817847 47.894 1.57724 48.0074 2.33494C48.2422 3.90319 48.4759 5.46415 48.7515 7.01782C49.4007 10.6645 50.106 14.3031 50.8113 17.9418L50.8114 17.9423C50.8383 18.0902 50.9572 18.2201 51.0773 18.3513C51.1362 18.4156 51.1954 18.4802 51.2442 18.5475L51.5808 18.4232C51.4472 17.4187 51.2923 16.4159 51.1373 15.4131C50.8274 13.4076 50.5175 11.4021 50.3786 9.38227C50.2342 7.28288 50.2687 5.13153 50.3036 2.9629V2.96279C50.319 2.00184 50.3345 1.0375 50.3345 0.0727754H58.7143V34.9383H49.3326L49.2514 34.4627C49.0803 33.4616 48.9049 32.4351 48.7355 31.4116L48.4195 29.6563L48.419 29.6535C47.6634 25.4546 46.9078 21.2561 46.1306 17.0607C46.0825 16.7922 45.826 16.5638 45.4493 16.3954C46.6323 22.4912 47.0243 28.7141 46.6155 34.9102H38.2357V0.0567479ZM103.255 8.06388H111.049C110.967 8.28599 110.901 8.47111 110.843 8.63513L110.843 8.63525L110.843 8.63584C110.765 8.85328 110.702 9.03366 110.628 9.21404C110.348 9.81517 110.053 10.411 109.758 11.0067C109.169 12.1983 108.579 13.3899 108.104 14.6242C107.537 16.0733 107.033 17.5466 106.529 19.0189C105.893 20.8774 105.257 22.7343 104.497 24.5388C103.074 27.9172 103.062 31.3636 103.251 34.9143H120.92V26.8752H113.225C113.343 26.4223 113.488 25.9767 113.658 25.5407C113.917 24.9883 114.197 24.4429 114.476 23.8978C114.986 22.9006 115.496 21.9044 115.882 20.8679C116.767 18.4865 117.604 16.0877 118.441 13.6895L118.441 13.6892L118.441 13.6888L118.442 13.6875L118.442 13.6869C119.113 11.7638 119.784 9.84093 120.479 7.92763C121.062 6.28375 121.012 4.62546 120.962 2.96896V2.9689V2.96883V2.96876V2.9687V2.96863C120.933 2.00438 120.904 1.04074 121 0.0808913H103.255V8.06388ZM21.6808 0.0808913H37.0417V8.04385H31.2067V13.1735H36.4366V20.9842H31.1907V26.8792H37.0658V34.9223C36.9063 34.9598 36.7442 34.9853 36.5809 34.9985C35.7032 34.9985 34.8255 35.0043 33.9479 35.0101C32.1926 35.0216 30.4373 35.0332 28.682 34.9985C25.8086 34.9263 23.4722 33.7962 22.338 31.027C21.8756 29.7905 21.6433 28.4799 21.6527 27.1598C21.6091 20.355 21.6164 13.5503 21.6236 6.74751C21.6257 4.80433 21.6278 2.8613 21.6287 0.918463C21.6287 0.777184 21.6415 0.641833 21.6545 0.505542C21.6676 0.367345 21.6808 0.228182 21.6808 0.0808913ZM88.1303 0.0526633H97.556V26.8791H102.726V34.818C101.794 34.818 100.863 34.8415 99.9346 34.8649C97.8213 34.9183 95.7215 34.9714 93.6527 34.7458C90.4466 34.4012 88.3948 31.7963 88.1864 28.5782C88.1292 27.736 88.1299 26.8912 88.1307 26.0399C88.1309 25.8178 88.1311 25.5953 88.1303 25.3722V0.0526633ZM77.0488 34.9464H86.3864V0.0808913H77.0488V34.9464Z" fill="#1B1D1D"/>
</g>
</svg>
