<svg width="262" height="164" viewBox="0 0 262 164" fill="none" xmlns="http://www.w3.org/2000/svg">
<path d="M230.92 33.9683C220.656 25.5498 208.478 12.3871 194.84 9.48533C188.508 8.13811 182.251 6.84588 175.746 6.55675C167.927 6.20927 159.841 3.60988 151.849 3.39388C141.674 3.1189 131.453 3.39388 121.274 3.39388C112.735 3.39388 103.047 3.63172 94.6827 5.26817C76.8305 8.76099 62.0142 11.7021 46.1854 21.5511C32.0774 30.3294 20.1419 40.2145 8.46523 51.8912C-1.40375 61.7602 0.173271 75.8674 3.77949 88.0885C6.9553 98.851 11.5384 109.759 15.8453 120.186C19.6502 129.398 26.5989 132.365 34.5882 137.054C62.7101 153.561 96.5781 147.256 127.366 151.229C141.986 153.115 154.878 151.39 168.717 146.777C182.204 142.282 196.654 139.687 210.362 135.707C234.386 128.732 255.611 108.476 259.386 82.9928C261.305 70.0437 262.231 55.8282 253.529 45.0383C243.913 33.114 232.787 22.3418 219.85 13.9953C210.868 8.20035 195.79 3.1931 185.059 2.39816C175.066 1.65795 164.666 0.385311 154.602 1.34387C128.818 3.79946 100.92 10.0169 76.8769 19.8525C58.8192 27.2398 40.3961 33.364 31.1325 51.8912C27.4943 59.1675 24.2796 64.3476 24.2796 72.977C24.2796 85.5046 23.6155 98.9571 29.551 110.404C34.4064 119.768 37.1361 130.595 43.2568 139.339C48.6846 147.093 55.994 152.619 64.3426 156.793C88.8153 169.029 113.202 159.398 137.089 152.049" stroke="#FFFFFF" stroke-linecap="round"/>
</svg>
